<?xml version="1.0" standalone="no"?>
<!DOCTYPE svg PUBLIC "-//W3C//DTD SVG 20010904//EN"
 "http://www.w3.org/TR/2001/REC-SVG-20010904/DTD/svg10.dtd">
<svg version="1.0" xmlns="http://www.w3.org/2000/svg"
 width="835.000000pt" height="835.000000pt" viewBox="0 0 835.000000 835.000000"
 preserveAspectRatio="xMidYMid meet">
<metadata>
Created by potrace 1.11, written by Peter Selinger 2001-2013
</metadata>
<g transform="translate(0.000000,835.000000) scale(0.100000,-0.100000)"
fill="#000000" stroke="none">
<path d="M4162 8114 c-6 -16 -65 -198 -132 -404 -184 -569 -220 -679 -245
-755 -13 -38 -75 -230 -139 -425 -179 -554 -405 -1247 -434 -1335 l-27 -80
-1588 0 c-873 0 -1586 -3 -1585 -7 2 -6 1120 -821 1441 -1051 32 -23 77 -56
100 -73 39 -28 236 -172 332 -242 22 -16 74 -53 115 -84 41 -30 188 -137 327
-238 139 -100 251 -186 249 -189 -2 -3 -29 -85 -60 -181 -212 -655 -269 -830
-281 -865 -8 -22 -64 -195 -125 -385 -62 -190 -122 -376 -135 -415 -30 -90
-242 -744 -307 -945 -27 -85 -54 -168 -60 -183 -6 -15 -8 -30 -5 -33 5 -5 372
258 900 645 87 64 168 123 180 131 30 20 131 93 137 100 3 3 28 21 55 40 28
19 52 38 53 42 2 4 8 8 13 8 6 0 15 5 22 10 18 16 174 130 531 388 175 127
328 238 340 247 11 8 92 67 179 131 l159 115 101 -73 c56 -40 109 -79 117 -85
13 -11 782 -570 932 -677 31 -23 201 -147 378 -276 177 -129 332 -242 343
-250 31 -21 220 -158 232 -167 6 -5 75 -55 155 -113 80 -57 180 -130 222 -162
42 -32 82 -58 87 -58 6 0 3 21 -8 53 -11 28 -38 110 -61 182 -22 72 -72 224
-109 340 -38 116 -91 280 -119 365 -120 370 -295 911 -317 975 -84 256 -239
732 -241 742 -1 6 -28 90 -60 187 -32 96 -56 177 -54 179 9 7 292 212 323 234
34 23 374 271 417 303 14 10 147 107 295 214 149 108 281 204 294 213 13 10
162 118 330 241 277 202 367 267 452 327 123 87 449 327 453 333 2 4 -712 7
-1587 7 l-1591 0 -43 135 c-24 74 -75 234 -114 355 -39 121 -75 229 -79 240
-5 11 -27 79 -50 150 -48 151 -352 1088 -405 1250 -13 39 -65 198 -115 355
-50 157 -97 301 -105 320 -7 19 -26 77 -42 129 -28 90 -30 93 -41 65z"/>
</g>
</svg>
