<?xml version="1.0" standalone="no"?>
<!DOCTYPE svg PUBLIC "-//W3C//DTD SVG 20010904//EN"
 "http://www.w3.org/TR/2001/REC-SVG-20010904/DTD/svg10.dtd">
<svg version="1.0" xmlns="http://www.w3.org/2000/svg"
 width="3508.000000pt" height="3508.000000pt" viewBox="0 0 3508.000000 3508.000000"
 preserveAspectRatio="xMidYMid meet">
<metadata>
Created by potrace 1.11, written by Peter Selinger 2001-2013
</metadata>
<g transform="translate(0.000000,3508.000000) scale(0.100000,-0.100000)"
fill="#000000" stroke="none">
<path d="M17367 33133 c-26 -82 -127 -404 -152 -483 -13 -41 -48 -154 -78
-250 -49 -154 -83 -263 -207 -655 -15 -49 -45 -144 -65 -210 -20 -66 -45 -145
-55 -175 -10 -30 -41 -127 -68 -215 -28 -88 -75 -239 -105 -335 -31 -96 -83
-265 -117 -375 -34 -110 -67 -216 -75 -235 -7 -19 -30 -89 -50 -155 -20 -66
-51 -167 -70 -225 -18 -58 -54 -172 -80 -255 -26 -82 -63 -199 -82 -260 -19
-60 -43 -137 -53 -170 -10 -33 -35 -112 -55 -175 -53 -168 -204 -645 -225
-715 -29 -93 -176 -565 -193 -615 -8 -25 -34 -106 -57 -180 -23 -74 -46 -139
-50 -143 -6 -7 -2363 -15 -4695 -17 l-890 0 35 -33 c19 -17 69 -59 110 -92 83
-67 234 -190 460 -375 84 -69 179 -145 210 -170 66 -52 139 -112 189 -156 20
-16 133 -108 251 -204 189 -153 453 -369 745 -608 50 -41 97 -79 105 -85 19
-16 169 -137 195 -159 18 -15 258 -211 295 -241 91 -74 470 -383 616 -502 67
-55 137 -112 156 -127 19 -15 79 -65 134 -110 83 -69 419 -343 488 -398 10 -8
38 -31 61 -50 23 -19 53 -44 66 -55 24 -19 233 -187 235 -189 1 -1 -11 -48
-27 -106 -16 -58 -41 -148 -55 -200 -24 -86 -34 -124 -80 -285 -26 -94 -113
-410 -185 -670 -39 -143 -82 -298 -96 -345 -13 -47 -26 -92 -28 -100 -2 -8
-26 -98 -55 -200 -28 -102 -55 -201 -60 -220 -5 -19 -46 -166 -90 -325 -45
-160 -83 -300 -86 -311 -2 -12 -13 -51 -23 -85 -10 -35 -35 -122 -55 -194 -56
-207 -265 -963 -286 -1040 -37 -131 -111 -399 -140 -505 -36 -133 -183 -661
-222 -800 -36 -129 -38 -139 -45 -169 -5 -22 3 -19 78 34 46 32 85 62 87 67 2
4 8 8 13 8 6 0 15 5 22 11 11 9 418 299 947 673 124 88 259 184 300 214 41 29
161 114 265 188 105 74 206 146 225 160 19 14 215 153 435 309 220 157 409
291 420 299 11 8 74 53 140 100 66 46 219 155 340 241 121 86 290 206 375 266
85 61 180 128 210 149 30 22 134 96 230 164 96 68 189 134 205 146 17 12 125
88 240 170 116 82 221 158 235 169 14 12 28 21 31 21 3 0 53 -31 110 -68 99
-65 181 -119 412 -269 56 -36 158 -103 227 -148 69 -45 159 -103 200 -130 41
-27 131 -85 200 -130 249 -163 399 -261 595 -388 110 -72 256 -167 325 -212
69 -45 172 -113 230 -150 58 -37 159 -103 224 -147 66 -43 123 -78 128 -78 4
0 8 -4 8 -10 0 -5 4 -10 10 -10 5 0 62 -35 127 -78 65 -43 173 -114 241 -157
67 -44 226 -147 352 -230 126 -82 292 -190 367 -239 76 -49 208 -135 293 -191
242 -159 334 -218 353 -230 15 -9 254 -164 500 -326 40 -25 73 -46 74 -45 2 1
-6 27 -18 57 -11 30 -40 110 -65 179 -88 240 -252 692 -391 1070 -19 52 -46
127 -59 165 -14 39 -30 81 -36 95 -5 14 -18 50 -29 80 -10 30 -70 197 -134
370 -64 173 -117 320 -119 325 -1 6 -12 37 -25 70 -13 33 -42 114 -66 180 -24
66 -78 215 -120 330 -42 116 -94 257 -115 315 -77 217 -172 476 -180 495 -8
18 -107 290 -221 605 -20 58 -52 143 -69 190 -17 47 -38 105 -46 130 -8 25
-19 54 -24 65 -5 11 -18 47 -30 80 -11 33 -25 69 -29 80 -5 11 -51 135 -101
275 -50 140 -105 289 -120 330 -22 58 -26 78 -17 87 7 7 73 55 147 107 74 52
140 98 145 103 10 8 707 504 749 533 12 8 66 47 120 85 54 39 128 91 165 116
36 26 152 107 256 182 105 75 211 151 238 169 26 18 57 41 70 50 18 14 528
377 590 420 11 7 72 51 138 98 65 47 227 162 359 255 133 94 247 175 254 180
6 6 25 19 41 31 127 89 669 474 705 500 25 18 122 87 215 153 94 66 175 124
180 128 15 13 205 147 224 158 9 6 18 12 21 15 3 3 42 32 88 64 45 33 82 60
82 62 0 1 -723 1 -1607 -1 -2758 -6 -4285 -7 -4287 -3 -2 2 -21 57 -44 123
-22 66 -78 226 -123 355 -44 129 -87 253 -94 275 -8 22 -32 94 -55 160 -23 66
-64 183 -90 260 -119 346 -245 710 -325 940 -47 138 -113 327 -145 420 -54
157 -182 529 -278 805 -22 63 -52 151 -66 195 -15 44 -31 89 -36 100 -5 11
-21 56 -35 100 -30 89 -179 521 -257 745 -27 80 -56 163 -63 185 -8 22 -46
132 -85 245 -39 113 -82 237 -95 275 -13 39 -60 176 -105 305 -45 129 -91 264
-103 300 -11 36 -23 69 -27 73 -4 5 -14 -13 -23 -40z"/>
<path d="M14788 14186 c-558 -1232 -945 -2101 -942 -2110 5 -14 43 -16 303
-16 l296 0 232 513 231 512 848 0 848 0 231 -510 232 -510 295 -3 c229 -2 298
1 306 10 16 20 -1887 4202 -1914 4206 -16 2 -148 -282 -966 -2092z m1276 86
c168 -370 306 -675 306 -678 0 -2 -277 -4 -616 -4 -489 0 -615 3 -611 13 5 12
573 1267 597 1320 7 15 14 26 16 25 1 -2 140 -306 308 -676z"/>
<path d="M19410 16263 c-423 -45 -802 -303 -965 -657 -60 -129 -79 -228 -79
-406 1 -178 17 -254 82 -394 60 -128 135 -231 256 -352 169 -170 346 -276 741
-444 504 -214 661 -331 790 -588 113 -226 74 -489 -99 -666 -142 -145 -336
-215 -561 -203 -355 21 -630 221 -808 589 -23 48 -47 87 -54 87 -21 1 -557
-149 -566 -158 -12 -12 17 -88 95 -246 139 -279 318 -490 543 -640 372 -246
863 -319 1279 -188 316 99 627 380 756 681 169 396 117 863 -135 1216 -190
267 -457 450 -1015 696 -395 174 -582 304 -656 455 -26 54 -29 69 -29 160 1
88 4 107 28 155 72 150 237 256 449 290 99 16 331 8 413 -14 122 -34 227 -102
386 -254 59 -55 93 -81 101 -76 38 23 458 366 458 374 0 17 -119 149 -192 211
-174 150 -381 254 -641 324 -166 45 -414 66 -577 48z"/>
<path d="M11085 16127 c-3 -7 -4 -138 -3 -292 l3 -280 482 -3 483 -2 2 -1743
3 -1742 285 0 285 0 3 1742 2 1743 483 2 482 3 3 293 2 292 -1255 0 c-1002 0
-1257 -3 -1260 -13z"/>
<path d="M21742 14103 l3 -2038 285 0 285 0 5 968 5 969 890 -971 890 -971
365 2 c315 3 365 5 368 18 1 8 -432 489 -983 1090 l-985 1075 47 46 c27 26
467 444 978 929 512 486 930 890 930 899 0 14 -40 16 -402 19 l-401 2 -849
-806 -848 -806 -3 806 -2 806 -290 0 -290 0 2 -2037z"/>
<path d="M15100 11249 c-371 -36 -701 -193 -976 -464 -322 -318 -458 -663
-441 -1114 14 -347 119 -627 337 -896 239 -293 573 -492 945 -561 139 -26 476
-26 620 0 308 56 581 196 809 416 254 246 405 530 457 865 20 122 16 400 -6
515 -56 297 -191 545 -420 775 -356 356 -807 514 -1325 464z m315 -430 c259
-32 478 -132 663 -304 207 -193 314 -407 344 -688 36 -333 -84 -645 -343 -893
-222 -212 -476 -314 -781 -314 -327 0 -612 111 -839 327 -218 207 -323 435
-336 724 -15 333 97 605 346 842 256 244 585 350 946 306z"/>
<path d="M21170 11250 c-200 -21 -383 -75 -562 -167 -155 -79 -266 -161 -409
-303 -222 -222 -347 -446 -411 -743 -30 -137 -32 -454 -5 -591 58 -288 196
-546 405 -759 329 -334 722 -498 1197 -497 276 1 531 57 772 171 l83 40 0 234
c0 134 -4 236 -9 240 -5 3 -54 -19 -108 -50 -224 -125 -447 -193 -663 -202
-231 -9 -433 29 -616 116 -135 65 -211 117 -322 225 -149 144 -238 294 -290
486 -23 84 -26 115 -26 270 -1 149 3 188 22 264 61 241 205 453 420 616 203
154 513 243 788 227 206 -13 470 -84 681 -182 54 -25 103 -43 110 -41 10 4 13
56 13 234 l0 228 -127 47 c-151 56 -320 101 -459 122 -124 19 -372 27 -484 15z"/>
<path d="M11630 9725 l0 -1445 208 2 207 3 3 682 2 683 593 2 592 3 0 205 0
205 -592 3 -593 2 0 340 0 340 593 2 592 3 0 205 0 205 -802 3 -803 2 0 -1445z"/>
<path d="M17535 11159 c-3 -8 -4 -657 -3 -1444 l3 -1430 208 -3 207 -2 0 590
0 591 35 -3 c34 -3 43 -15 428 -588 l393 -585 238 -3 c224 -2 238 -1 234 15
-3 10 -184 284 -403 610 -218 325 -396 595 -394 600 2 4 40 18 84 31 344 99
577 329 642 635 23 109 13 298 -20 402 -93 287 -368 498 -742 571 -113 23
-902 33 -910 13z m651 -379 c247 -20 374 -63 472 -160 86 -84 122 -176 122
-311 0 -297 -228 -457 -682 -476 l-148 -6 0 481 0 482 54 0 c29 0 111 -5 182
-10z"/>
<path d="M22775 11158 c-3 -7 -4 -656 -3 -1443 l3 -1430 803 -3 802 -2 0 210
0 210 -595 0 -595 0 0 475 0 475 595 0 595 0 0 210 0 210 -595 0 -595 0 0 340
0 340 595 0 595 0 0 210 0 210 -800 0 c-631 0 -802 -3 -805 -12z"/>
<path d="M11240 5492 l0 -992 130 0 130 0 2 676 3 677 671 -689 c370 -379 686
-702 703 -718 l31 -30 0 1002 0 1002 -130 0 -130 0 -2 -686 -3 -687 -671 689
c-370 379 -686 702 -703 718 l-31 30 0 -992z"/>
<path d="M20566 6469 c-346 -51 -666 -288 -811 -603 -59 -128 -79 -228 -79
-401 0 -121 4 -167 22 -238 83 -332 359 -621 697 -730 135 -43 192 -52 360
-52 201 0 334 27 493 100 l72 34 0 150 0 151 -52 -29 c-74 -42 -189 -88 -283
-114 -113 -30 -343 -30 -460 2 -156 42 -277 114 -385 227 -112 118 -166 224
-190 377 -43 263 60 526 267 689 275 216 636 235 1029 53 l75 -34 -3 151 -3
151 -72 27 c-95 37 -249 76 -346 89 -91 13 -246 12 -331 0z"/>
<path d="M13300 5460 l0 -960 130 0 130 0 0 960 0 960 -130 0 -130 0 0 -960z"/>
<path d="M13860 6290 l0 -130 230 0 230 0 0 -830 0 -830 130 0 130 0 0 830 0
830 230 0 230 0 0 130 0 130 -590 0 -590 0 0 -130z"/>
<path d="M16060 6290 l0 -130 230 0 230 0 0 -830 0 -830 130 0 130 0 0 830 0
830 230 0 230 0 0 130 0 130 -590 0 -590 0 0 -130z"/>
<path d="M17580 5461 l0 -961 130 0 130 0 0 401 0 400 31 -3 c30 -3 50 -29
299 -398 l267 -395 152 -3 152 -3 -134 198 c-73 109 -200 295 -280 414 l-147
217 98 31 c53 18 127 49 163 71 123 73 220 206 248 338 59 283 -120 535 -445
624 -71 19 -110 22 -371 26 l-293 4 0 -961z m481 719 c48 -6 117 -19 155 -31
56 -17 77 -31 125 -78 72 -72 95 -137 86 -244 -17 -197 -202 -307 -518 -307
l-69 0 0 335 0 335 68 0 c37 0 106 -5 153 -10z"/>
<path d="M19080 5460 l0 -960 130 0 130 0 0 960 0 960 -130 0 -130 0 0 -960z"/>
<path d="M21630 5460 l0 -960 130 0 130 0 0 460 0 460 460 0 460 0 0 -460 0
-460 130 0 130 0 0 960 0 960 -130 0 -130 0 0 -370 0 -370 -460 0 -460 0 0
370 0 370 -130 0 -130 0 0 -960z"/>
<path d="M23597 6063 c119 -197 260 -431 315 -521 l98 -163 0 -440 0 -439 130
0 130 0 0 440 0 439 313 518 314 518 -141 3 c-120 2 -143 0 -153 -14 -6 -8
-112 -182 -235 -385 -123 -203 -225 -369 -228 -368 -3 0 -109 172 -235 382
l-230 382 -148 3 -147 3 217 -358z"/>
</g>
</svg>
